<svg>
    <defs>
        <symbol id="arrow">
            <path fill-rule="evenodd" clip-rule="evenodd" d="M0.292893 0.292893C0.683417 -0.0976311 1.31658 -0.0976311 1.70711 0.292893L9 7.58579L16.2929 0.292893C16.6834 -0.0976311 17.3166 -0.0976311 17.7071 0.292893C18.0976 0.683417 18.0976 1.31658 17.7071 1.70711L9.70711 9.70711C9.31658 10.0976 8.68342 10.0976 8.29289 9.70711L0.292893 1.70711C-0.0976311 1.31658 -0.0976311 0.683417 0.292893 0.292893Z"/>
        </symbol>
        <symbol id="cross">
            <path fill-rule="evenodd" clip-rule="evenodd" d="M0.292893 0.292893C0.683417 -0.0976311 1.31658 -0.0976311 1.70711 0.292893L13.7071 12.2929C14.0976 12.6834 14.0976 13.3166 13.7071 13.7071C13.3166 14.0976 12.6834 14.0976 12.2929 13.7071L0.292893 1.70711C-0.0976311 1.31658 -0.0976311 0.683417 0.292893 0.292893Z"/>
        </symbol>
        <symbol id="question-mark">
            <path fill-rule="evenodd" clip-rule="evenodd" d="M4.25823 3.02428C3.79271 2.94443 3.31396 3.03191 2.90675 3.27123C2.49955 3.51054 2.19019 3.88625 2.03345 4.3318C1.85018 4.85279 1.27926 5.12657 0.758273 4.9433C0.237284 4.76002 -0.0364903 4.18911 0.146782 3.66812C0.460254 2.77701 1.07898 2.02559 1.89339 1.54696C2.70779 1.06833 3.66531 0.893369 4.59635 1.05307C5.52739 1.21277 6.37187 1.69682 6.98022 2.41949C7.58844 3.14201 7.92139 4.05644 7.92012 5.00087C7.91967 6.53123 6.78506 7.54185 5.97482 8.08201C5.53919 8.37243 5.11067 8.58598 4.795 8.72627C4.63575 8.79705 4.50165 8.85076 4.40502 8.88757C4.35662 8.90601 4.31738 8.9203 4.28882 8.93046L4.25409 8.94262L4.24303 8.9464L4.23913 8.94771L4.2376 8.94823C4.2373 8.94833 4.23634 8.94864 3.92012 7.99996L4.23634 8.94864C3.7124 9.12329 3.14608 8.84013 2.97143 8.31619C2.7969 7.79259 3.07957 7.22668 3.60284 7.05163L3.60156 7.05206C3.60167 7.05202 3.60175 7.052 3.60284 7.05163L3.6188 7.04603C3.63418 7.04056 3.65939 7.03141 3.69303 7.0186C3.76046 6.99291 3.86073 6.95287 3.98273 6.89865C4.22956 6.78895 4.55105 6.62749 4.86542 6.41791C5.55502 5.95818 5.92012 5.4691 5.92012 4.99996L5.92012 4.99847C5.92082 4.52615 5.75434 4.06883 5.45017 3.70749C5.146 3.34615 4.72375 3.10413 4.25823 3.02428Z"/>
        </symbol>
    </defs>
</svg>